<?xml version="1.0" encoding="UTF-8"?>
<svg id="Layer_2" data-name="Layer 2" xmlns="http://www.w3.org/2000/svg" viewBox="0 0 155 25.78">
  <defs>
    <style>
      .cls-1 {
        fill: #ac0737;
      }
    </style>
  </defs>
  <g id="Layer_1-2" data-name="Layer 1">
    <g>
      <path class="cls-1" d="m26.99,14.42l.04-3.28c.24-5.59,2.86-8.1,8.22-7.87h7.82V0h-7.58c-4.19,0-6.81.66-8.75,2.2-3.02,2.43-4.47,6.05-4.47,11.18,0,3.93.85,6.67,2.78,9.02,2.02,2.39,4.56,3.32,9.19,3.32h8.83v-3.28h-8.06c-5.04.27-7.9-2.58-8.02-8.02Z"/>
      <rect class="cls-1" x="28.56" y="11.14" width="14.52" height="3.28"/>
      <path class="cls-1" d="m86.06,20.43c-2.98-6.86-5.89-13.58-8.79-20.27h-6.36v25.56h4.38V6.68s.09-.02.14-.03c2.8,6.5,5.6,12.59,8.39,19.07h4.44c2.7-6.36,5.39-12.72,8.08-19.07.05,0,.1.02.14.03v19.04h4.22V.16h-6.1c-2.83,6.7-5.66,13.42-8.54,20.27Z"/>
      <path class="cls-1" d="m63.92,18.86c-4.53-6.34-8.95-12.53-13.36-18.7h-5.31v25.55h4.2V6.22c4.83,6.61,9.54,13.06,14.24,19.5h4.41V.16h-4.19v18.7Z"/>
      <path class="cls-1" d="m113.22.16c-3.67,8.52-7.34,17.02-11.02,25.55h4.64c3.01-7.13,6.03-14.27,9.12-21.57,1.71,3.94,3.35,7.7,5.02,11.53h-8.61c-.39,1.1-.78,2.18-1.19,3.33h11.31c.97,2.27,1.93,4.48,2.89,6.71h4.8c-3.66-8.55-7.3-17.05-10.94-25.55h-6.01Z"/>
      <path class="cls-1" d="m5.12,1.88C2.24,3.79,0,7.23,0,12.89c0,4.66,1.78,8.03,3.83,10.21,1.98,2.07,3.93,2.68,8.42,2.68h8.59v-14.2h-3.72v10.95h-4.38c-3.86,0-5.32-.61-6.61-2.83-1.01-1.72-1.36-3.56-1.36-6.84,0-4.24.97-7,2.96-8.34,1.22-.84,1.98-.99,5.01-.99h8.1V.27h-8.41c-3.65,0-5.56.42-7.3,1.61Z"/>
      <path class="cls-1" d="m149.91,13.95c1.63-.42,1.86-.77,2.8-1.53,1.47-1.19,2.29-3.03,2.29-5.17,0-2.37-1.1-4.52-3.02-5.71-1.47-.96-3.76-1.38-7.52-1.38h-12.42v25.55h4.37V3.42h7.77c2.57,0,3.73.31,4.43.73,1.15.61,1.54,1.76,1.54,3.37,0,1.49-.32,2.32-1.39,3.09-.78.54-2.13,1.05-4.58,1.05h-6.82v3.26h3.38c6.54.04,8.4,1.72,8.97,7.12l.09,1.3c.08.73.02,1.19.06,1.42.08.46-.07.69.06.96h4.99c-.53-.84-.35-.84-.56-3.87-.32-4.68-2.44-6.54-4.44-7.89Z"/>
    </g>
  </g>
</svg>